<svg width="600" height="364" viewBox="0 0 600 364" fill="none" xmlns="http://www.w3.org/2000/svg">
<path d="M104.418 35.3111V184.274H68.4271V68.9028H67.6273L34.2356 89.3978V58.2055L71.0265 35.3111H104.418ZM180.451 186.274C167.255 186.274 155.958 183.241 146.56 177.176C137.229 171.111 130.064 162.413 125.065 151.083C120.066 139.685 117.567 125.955 117.567 109.893C117.567 93.83 120.066 80.1 125.065 68.7029C130.064 57.239 137.262 48.4745 146.66 42.4094C156.057 36.3442 167.355 33.3116 180.551 33.3116C193.748 33.3116 205.045 36.3775 214.443 42.5093C223.841 48.5745 231.039 57.3057 236.038 68.7029C241.037 80.1 243.536 93.83 243.536 109.893C243.536 125.955 241.037 139.685 236.038 151.083C231.039 162.413 223.841 171.111 214.443 177.176C205.112 183.241 193.782 186.274 180.451 186.274ZM180.451 156.881C186.05 156.881 190.782 155.082 194.648 151.482C198.514 147.817 201.446 142.485 203.446 135.486C205.445 128.488 206.445 119.957 206.445 109.893C206.445 99.7619 205.445 91.1973 203.446 84.199C201.446 77.1341 198.514 71.7688 194.648 68.103C190.782 64.3706 186.05 62.5044 180.451 62.5044C172.12 62.5044 165.722 66.6367 161.256 74.9013C156.791 83.0993 154.558 94.7631 154.558 109.893C154.558 119.957 155.524 128.488 157.457 135.486C159.457 142.485 162.389 147.817 166.255 151.482C170.187 155.082 174.92 156.881 180.451 156.881ZM317.97 186.274C304.773 186.274 293.476 183.241 284.078 177.176C274.747 171.111 267.582 162.413 262.583 151.083C257.584 139.685 255.085 125.955 255.085 109.893C255.085 93.83 257.584 80.1 262.583 68.7029C267.582 57.239 274.78 48.4745 284.178 42.4094C293.576 36.3442 304.873 33.3116 318.069 33.3116C331.266 33.3116 342.563 36.3775 351.961 42.5093C361.359 48.5745 368.557 57.3057 373.556 68.7029C378.555 80.1 381.054 93.83 381.054 109.893C381.054 125.955 378.555 139.685 373.556 151.083C368.557 162.413 361.359 171.111 351.961 177.176C342.63 183.241 331.3 186.274 317.97 186.274ZM317.97 156.881C323.568 156.881 328.3 155.082 332.166 151.482C336.032 147.817 338.964 142.485 340.964 135.486C342.963 128.488 343.963 119.957 343.963 109.893C343.963 99.7619 342.963 91.1973 340.964 84.199C338.964 77.1341 336.032 71.7688 332.166 68.103C328.3 64.3706 323.568 62.5044 317.97 62.5044C309.638 62.5044 303.24 66.6367 298.774 74.9013C294.309 83.0993 292.076 94.7631 292.076 109.893C292.076 119.957 293.042 128.488 294.975 135.486C296.975 142.485 299.907 147.817 303.773 151.482C307.705 155.082 312.438 156.881 317.97 156.881ZM467.145 156.281V148.483C467.145 142.351 468.444 136.686 471.044 131.487C473.643 126.289 477.475 122.123 482.541 118.99C487.606 115.858 493.771 114.292 501.036 114.292C508.501 114.292 514.733 115.858 519.732 118.99C524.797 122.123 528.629 126.289 531.229 131.487C533.828 136.619 535.128 142.285 535.128 148.483V156.281C535.128 162.413 533.795 168.078 531.129 173.277C528.53 178.476 524.697 182.641 519.632 185.774C514.566 188.907 508.368 190.473 501.036 190.473C493.705 190.473 487.506 188.907 482.441 185.774C477.375 182.641 473.543 178.476 470.944 173.277C468.411 168.078 467.145 162.413 467.145 156.281ZM490.239 148.483V156.281C490.239 159.414 491.005 162.413 492.538 165.279C494.071 168.145 496.904 169.578 501.036 169.578C505.235 169.578 508.068 168.178 509.534 165.379C511.001 162.58 511.734 159.547 511.734 156.281V148.483C511.734 145.217 511.034 142.151 509.634 139.285C508.301 136.419 505.435 135.02 501.036 135.086C496.971 135.02 494.138 136.419 492.538 139.285C491.005 142.151 490.239 145.217 490.239 148.483ZM389.864 71.1023V63.3042C389.864 57.1057 391.197 51.4405 393.863 46.3084C396.529 41.1097 400.394 36.944 405.46 33.8115C410.525 30.6789 416.657 29.1126 423.855 29.1126C431.32 29.1126 437.585 30.6789 442.651 33.8115C447.716 36.944 451.549 41.1097 454.148 46.3084C456.747 51.4405 458.014 57.1057 457.947 63.3042V71.1023C458.014 77.3007 456.714 82.9993 454.048 88.198C451.382 93.3301 447.516 97.4291 442.451 100.495C437.385 103.494 431.187 105.027 423.855 105.094C416.524 105.027 410.325 103.461 405.26 100.395C400.195 97.2625 396.362 93.1302 393.763 87.9981C391.163 82.7994 389.864 77.1674 389.864 71.1023ZM413.358 63.3042V71.1023C413.358 74.3681 414.091 77.4007 415.557 80.2C417.024 82.9993 419.79 84.3657 423.855 84.299C428.054 84.3657 430.887 82.9993 432.353 80.2C433.82 77.4007 434.519 74.3681 434.453 71.1023V63.3042C434.519 60.0383 433.853 56.9724 432.453 54.1065C431.054 51.2405 428.188 49.7742 423.855 49.7076C419.723 49.7742 416.924 51.3072 415.457 54.3064C414.058 57.239 413.358 60.2383 413.358 63.3042ZM400.761 184.274L503.136 35.3111H523.131L420.756 184.274H400.761Z" fill="#F25CFF"/>
<path d="M67.9363 258.651V222.947H80.3911V229.781H80.7743C81.413 227.248 82.4349 225.406 83.8401 224.256C85.2665 223.085 86.9272 222.5 88.822 222.5C89.3756 222.5 89.9291 222.542 90.4827 222.628C91.0362 222.713 91.5685 222.84 92.0794 223.011V233.933C91.4407 233.699 90.653 233.539 89.7162 233.454C88.8007 233.347 88.013 233.294 87.353 233.294C86.0969 233.294 84.9685 233.581 83.9678 234.156C82.9672 234.71 82.1795 235.498 81.6046 236.519C81.0511 237.52 80.7743 238.702 80.7743 240.064V258.651H67.9363ZM111.798 259.289C107.987 259.289 104.697 258.566 101.93 257.118C99.1831 255.649 97.0754 253.541 95.6064 250.795C94.1373 248.048 93.4028 244.748 93.4028 240.895C93.4028 237.211 94.1373 233.997 95.6064 231.25C97.0967 228.482 99.1938 226.332 101.898 224.799C104.602 223.266 107.795 222.5 111.478 222.5C114.182 222.5 116.62 222.926 118.791 223.777C120.984 224.608 122.858 225.821 124.412 227.418C125.966 228.993 127.159 230.909 127.989 233.166C128.819 235.423 129.234 237.978 129.234 240.831V243.769H97.3628V236.743H123.23L117.227 238.212C117.227 236.764 117.014 235.551 116.588 234.571C116.162 233.571 115.534 232.815 114.704 232.304C113.873 231.772 112.841 231.506 111.606 231.506C110.371 231.506 109.339 231.772 108.508 232.304C107.678 232.815 107.05 233.571 106.624 234.571C106.198 235.551 105.985 236.764 105.985 238.212V243.322C105.985 244.727 106.23 245.951 106.72 246.994C107.231 248.038 107.944 248.847 108.86 249.421C109.775 249.996 110.84 250.284 112.053 250.284C112.926 250.284 113.714 250.167 114.416 249.932C115.14 249.677 115.758 249.315 116.269 248.847C116.78 248.378 117.163 247.814 117.418 247.154H129.107C128.702 249.624 127.755 251.774 126.264 253.605C124.795 255.415 122.837 256.82 120.388 257.82C117.961 258.8 115.098 259.289 111.798 259.289ZM169.647 222.947L157.639 258.651H142.757L130.813 222.947H144.29L150.23 246.579H150.613L156.362 222.947H169.647ZM189.748 259.289C185.937 259.289 182.648 258.566 179.88 257.118C177.134 255.649 175.026 253.541 173.557 250.795C172.088 248.048 171.353 244.748 171.353 240.895C171.353 237.211 172.088 233.997 173.557 231.25C175.047 228.482 177.144 226.332 179.848 224.799C182.552 223.266 185.746 222.5 189.429 222.5C192.133 222.5 194.57 222.926 196.742 223.777C198.935 224.608 200.808 225.821 202.363 227.418C203.917 228.993 205.109 230.909 205.939 233.166C206.77 235.423 207.185 237.978 207.185 240.831V243.769H175.313V236.743H201.181L195.177 238.212C195.177 236.764 194.964 235.551 194.538 234.571C194.113 233.571 193.485 232.815 192.654 232.304C191.824 231.772 190.791 231.506 189.556 231.506C188.322 231.506 187.289 231.772 186.459 232.304C185.628 232.815 185 233.571 184.575 234.571C184.149 235.551 183.936 236.764 183.936 238.212V243.322C183.936 244.727 184.181 245.951 184.67 246.994C185.181 248.038 185.895 248.847 186.81 249.421C187.725 249.996 188.79 250.284 190.004 250.284C190.876 250.284 191.664 250.167 192.367 249.932C193.091 249.677 193.708 249.315 194.219 248.847C194.73 248.378 195.113 247.814 195.369 247.154H207.057C206.653 249.624 205.705 251.774 204.215 253.605C202.746 255.415 200.787 256.82 198.339 257.82C195.912 258.8 193.048 259.289 189.748 259.289ZM225.562 238.595V258.651H212.724V222.947H225.434V229.781H225.689C226.477 227.503 227.765 225.725 229.554 224.448C231.363 223.149 233.588 222.5 236.228 222.5C238.762 222.5 240.955 223.075 242.807 224.224C244.68 225.374 246.128 226.96 247.15 228.983C248.172 231.005 248.683 233.315 248.683 235.913V258.651H235.845V238.595C235.845 236.828 235.398 235.444 234.504 234.444C233.609 233.422 232.353 232.911 230.735 232.911C229.692 232.911 228.777 233.145 227.989 233.613C227.222 234.06 226.626 234.71 226.2 235.561C225.775 236.392 225.562 237.403 225.562 238.595ZM278.748 243.066V222.947H291.586V258.651H279.387V251.88H279.004C278.237 254.137 276.885 255.915 274.948 257.214C273.032 258.491 270.743 259.119 268.082 259.098C265.591 259.098 263.409 258.534 261.535 257.405C259.661 256.256 258.203 254.68 257.16 252.679C256.138 250.656 255.627 248.346 255.627 245.749V222.947H268.465V243.066C268.465 244.812 268.912 246.196 269.806 247.218C270.7 248.218 271.957 248.708 273.575 248.687C274.639 248.687 275.555 248.463 276.321 248.016C277.088 247.569 277.684 246.93 278.109 246.1C278.535 245.248 278.748 244.237 278.748 243.066ZM315.648 259.289C311.837 259.289 308.547 258.566 305.78 257.118C303.033 255.649 300.925 253.541 299.456 250.795C297.987 248.048 297.253 244.748 297.253 240.895C297.253 237.211 297.987 233.997 299.456 231.25C300.947 228.482 303.044 226.332 305.748 224.799C308.451 223.266 311.645 222.5 315.328 222.5C318.032 222.5 320.47 222.926 322.641 223.777C324.834 224.608 326.708 225.821 328.262 227.418C329.816 228.993 331.009 230.909 331.839 233.166C332.669 235.423 333.084 237.978 333.084 240.831V243.769H301.213V236.743H327.08L321.077 238.212C321.077 236.764 320.864 235.551 320.438 234.571C320.012 233.571 319.384 232.815 318.554 232.304C317.723 231.772 316.691 231.506 315.456 231.506C314.221 231.506 313.189 231.772 312.358 232.304C311.528 232.815 310.9 233.571 310.474 234.571C310.048 235.551 309.835 236.764 309.835 238.212V243.322C309.835 244.727 310.08 245.951 310.57 246.994C311.081 248.038 311.794 248.847 312.71 249.421C313.625 249.996 314.69 250.284 315.903 250.284C316.776 250.284 317.564 250.167 318.266 249.932C318.99 249.677 319.608 249.315 320.119 248.847C320.63 248.378 321.013 247.814 321.268 247.154H332.957C332.552 249.624 331.605 251.774 330.114 253.605C328.645 255.415 326.687 256.82 324.238 257.82C321.811 258.8 318.948 259.289 315.648 259.289ZM384.656 234.571H372.904C372.819 233.486 372.297 232.634 371.339 232.017C370.402 231.378 369.306 231.059 368.05 231.059C366.943 231.059 366.006 231.261 365.239 231.665C364.473 232.049 364.09 232.613 364.09 233.358C364.09 233.89 364.313 234.39 364.76 234.859C365.229 235.327 366.134 235.679 367.475 235.913L374.756 237.19C378.397 237.829 381.111 238.936 382.9 240.511C384.709 242.087 385.614 244.195 385.614 246.835C385.614 249.389 384.869 251.604 383.379 253.477C381.888 255.329 379.845 256.767 377.247 257.788C374.671 258.789 371.733 259.289 368.433 259.289C362.983 259.289 358.714 258.182 355.627 255.968C352.561 253.733 350.847 250.795 350.485 247.154H363.196C363.387 248.282 363.962 249.155 364.92 249.773C365.878 250.369 367.07 250.667 368.497 250.667C369.689 250.667 370.668 250.465 371.435 250.06C372.201 249.656 372.585 249.091 372.585 248.368C372.585 247.111 371.222 246.238 368.497 245.749L362.174 244.599C358.554 243.939 355.84 242.736 354.03 240.99C352.22 239.223 351.316 236.935 351.316 234.124C351.316 231.633 351.976 229.526 353.296 227.801C354.637 226.077 356.532 224.767 358.98 223.873C361.45 222.958 364.388 222.5 367.794 222.5C372.947 222.5 377.002 223.575 379.962 225.725C382.942 227.854 384.507 230.803 384.656 234.571ZM403.8 238.595V258.651H390.961V211.067H403.289V229.781H403.672C404.481 227.503 405.822 225.725 407.696 224.448C409.569 223.149 411.826 222.5 414.466 222.5C416.978 222.5 419.16 223.075 421.013 224.224C422.886 225.374 424.334 226.96 425.356 228.983C426.399 230.984 426.921 233.294 426.921 235.913V258.651H414.083V238.595C414.083 236.828 413.636 235.444 412.741 234.444C411.869 233.422 410.612 232.911 408.973 232.911C407.93 232.911 407.014 233.145 406.227 233.613C405.46 234.06 404.864 234.71 404.438 235.561C404.012 236.392 403.8 237.403 403.8 238.595ZM443.829 259.226C441.551 259.226 439.528 258.853 437.761 258.108C436.015 257.341 434.652 256.192 433.673 254.659C432.694 253.126 432.204 251.178 432.204 248.815C432.204 246.856 432.534 245.185 433.194 243.801C433.854 242.417 434.78 241.288 435.972 240.416C437.165 239.521 438.549 238.84 440.124 238.372C441.721 237.882 443.445 237.573 445.298 237.446C447.299 237.297 448.896 237.116 450.088 236.903C451.301 236.69 452.174 236.381 452.707 235.977C453.26 235.551 453.537 234.997 453.537 234.316V234.188C453.537 233.273 453.186 232.57 452.483 232.08C451.78 231.569 450.876 231.314 449.769 231.314C448.534 231.314 447.533 231.58 446.767 232.112C446 232.645 445.532 233.464 445.361 234.571H433.609C433.758 232.4 434.44 230.399 435.653 228.568C436.888 226.737 438.687 225.268 441.05 224.16C443.435 223.053 446.405 222.5 449.96 222.5C452.494 222.5 454.772 222.798 456.794 223.394C458.817 223.99 460.541 224.82 461.968 225.885C463.394 226.949 464.48 228.195 465.225 229.621C465.992 231.027 466.375 232.549 466.375 234.188V258.651H454.367V253.605H454.112C453.388 254.946 452.515 256.032 451.493 256.862C450.492 257.671 449.353 258.267 448.076 258.651C446.799 259.034 445.383 259.226 443.829 259.226ZM447.98 251.114C448.96 251.114 449.875 250.912 450.727 250.507C451.6 250.103 452.302 249.528 452.834 248.783C453.388 248.016 453.665 247.09 453.665 246.004V243.066C453.324 243.194 452.962 243.322 452.579 243.449C452.196 243.577 451.78 243.694 451.333 243.801C450.908 243.907 450.46 244.003 449.992 244.088C449.545 244.173 449.066 244.258 448.555 244.344C447.554 244.493 446.735 244.748 446.096 245.11C445.479 245.451 445.021 245.877 444.723 246.388C444.425 246.877 444.276 247.431 444.276 248.048C444.276 249.049 444.616 249.815 445.298 250.347C446 250.858 446.894 251.114 447.98 251.114ZM473.319 258.651V222.947H485.774V229.781H486.157C486.796 227.248 487.818 225.406 489.223 224.256C490.649 223.085 492.31 222.5 494.205 222.5C494.758 222.5 495.312 222.542 495.865 222.628C496.419 222.713 496.951 222.84 497.462 223.011V233.933C496.823 233.699 496.036 233.539 495.099 233.454C494.183 233.347 493.396 233.294 492.736 233.294C491.48 233.294 490.351 233.581 489.351 234.156C488.35 234.71 487.562 235.498 486.987 236.519C486.434 237.52 486.157 238.702 486.157 240.064V258.651H473.319ZM517.18 259.289C513.369 259.289 510.08 258.566 507.312 257.118C504.566 255.649 502.458 253.541 500.989 250.795C499.52 248.048 498.786 244.748 498.786 240.895C498.786 237.211 499.52 233.997 500.989 231.25C502.479 228.482 504.577 226.332 507.28 224.799C509.984 223.266 513.178 222.5 516.861 222.5C519.565 222.5 522.003 222.926 524.174 223.777C526.367 224.608 528.241 225.821 529.795 227.418C531.349 228.993 532.541 230.909 533.372 233.166C534.202 235.423 534.617 237.978 534.617 240.831V243.769H502.746V236.743H528.613L522.609 238.212C522.609 236.764 522.396 235.551 521.971 234.571C521.545 233.571 520.917 232.815 520.086 232.304C519.256 231.772 518.224 231.506 516.989 231.506C515.754 231.506 514.721 231.772 513.891 232.304C513.061 232.815 512.433 233.571 512.007 234.571C511.581 235.551 511.368 236.764 511.368 238.212V243.322C511.368 244.727 511.613 245.951 512.103 246.994C512.614 248.038 513.327 248.847 514.242 249.421C515.158 249.996 516.222 250.284 517.436 250.284C518.309 250.284 519.096 250.167 519.799 249.932C520.523 249.677 521.14 249.315 521.651 248.847C522.162 248.378 522.545 247.814 522.801 247.154H534.489C534.085 249.624 533.137 251.774 531.647 253.605C530.178 255.415 528.219 256.82 525.771 257.82C523.344 258.8 520.48 259.289 517.18 259.289Z" fill="#F25CFF"/>
<path d="M81.2989 329.108C78.0008 329.108 75.1738 328.456 72.818 327.151C70.4804 325.828 68.6864 323.998 67.436 321.66C66.2037 319.305 65.5876 316.568 65.5876 313.451C65.5876 310.335 66.2037 307.607 67.436 305.27C68.6864 302.914 70.4804 301.084 72.818 299.779C75.1738 298.456 78.0008 297.795 81.2989 297.795C84.597 297.795 87.4148 298.456 89.7525 299.779C92.1083 301.084 93.9023 302.914 95.1346 305.27C96.3849 307.607 97.0101 310.335 97.0101 313.451C97.0101 316.568 96.3849 319.305 95.1346 321.66C93.9023 323.998 92.1083 325.828 89.7525 327.151C87.4148 328.456 84.597 329.108 81.2989 329.108ZM81.3532 320.954C82.2955 320.954 83.1019 320.655 83.7724 320.057C84.4429 319.459 84.9594 318.598 85.3218 317.474C85.6842 316.333 85.8655 314.974 85.8655 313.397C85.8655 311.802 85.6842 310.452 85.3218 309.347C84.9594 308.242 84.4429 307.399 83.7724 306.819C83.1019 306.239 82.2955 305.949 81.3532 305.949C80.3928 305.949 79.5592 306.239 78.8525 306.819C78.1639 307.399 77.6383 308.242 77.2759 309.347C76.9135 310.452 76.7323 311.802 76.7323 313.397C76.7323 314.974 76.9135 316.333 77.2759 317.474C77.6383 318.598 78.1639 319.459 78.8525 320.057C79.5592 320.655 80.3928 320.954 81.3532 320.954ZM112.761 311.494V328.565H101.833V298.175H112.652V303.992H112.869C113.54 302.053 114.636 300.54 116.158 299.453C117.699 298.347 119.592 297.795 121.839 297.795C123.996 297.795 125.862 298.284 127.439 299.262C129.034 300.241 130.266 301.591 131.136 303.313C132.005 305.034 132.44 307 132.44 309.211V328.565H121.513V311.494C121.513 309.99 121.133 308.812 120.371 307.961C119.61 307.091 118.541 306.656 117.164 306.656C116.276 306.656 115.497 306.855 114.826 307.254C114.174 307.634 113.667 308.187 113.304 308.912C112.942 309.619 112.761 310.48 112.761 311.494ZM156.439 339.927C155.189 339.945 153.992 339.854 152.851 339.655C151.709 339.474 150.713 339.22 149.861 338.894L152.253 331.12L152.416 331.174C153.721 331.609 154.853 331.808 155.814 331.772C156.792 331.736 157.454 331.301 157.798 330.467L158.015 329.924L147.36 298.175H158.722L163.615 319.214H163.941L168.943 298.175H180.413L169.323 331.12C168.78 332.787 167.982 334.282 166.931 335.605C165.898 336.946 164.53 337.997 162.827 338.758C161.123 339.537 158.994 339.927 156.439 339.927ZM197.577 329.108C194.279 329.108 191.452 328.456 189.097 327.151C186.759 325.828 184.965 323.998 183.714 321.66C182.482 319.305 181.866 316.568 181.866 313.451C181.866 310.335 182.482 307.607 183.714 305.27C184.965 302.914 186.759 301.084 189.097 299.779C191.452 298.456 194.279 297.795 197.577 297.795C200.875 297.795 203.693 298.456 206.031 299.779C208.387 301.084 210.181 302.914 211.413 305.27C212.663 307.607 213.289 310.335 213.289 313.451C213.289 316.568 212.663 319.305 211.413 321.66C210.181 323.998 208.387 325.828 206.031 327.151C203.693 328.456 200.875 329.108 197.577 329.108ZM197.632 320.954C198.574 320.954 199.38 320.655 200.051 320.057C200.721 319.459 201.238 318.598 201.6 317.474C201.963 316.333 202.144 314.974 202.144 313.397C202.144 311.802 201.963 310.452 201.6 309.347C201.238 308.242 200.721 307.399 200.051 306.819C199.38 306.239 198.574 305.949 197.632 305.949C196.671 305.949 195.838 306.239 195.131 306.819C194.442 307.399 193.917 308.242 193.554 309.347C193.192 310.452 193.011 311.802 193.011 313.397C193.011 314.974 193.192 316.333 193.554 317.474C193.917 318.598 194.442 319.459 195.131 320.057C195.838 320.655 196.671 320.954 197.632 320.954ZM237.792 315.3V298.175H248.719V328.565H238.335V322.802H238.009C237.357 324.723 236.206 326.236 234.557 327.342C232.926 328.429 230.978 328.963 228.713 328.945C226.593 328.945 224.735 328.465 223.141 327.505C221.546 326.526 220.305 325.185 219.417 323.482C218.547 321.76 218.112 319.794 218.112 317.583V298.175H229.039V315.3C229.039 316.786 229.42 317.964 230.181 318.834C230.942 319.685 232.011 320.102 233.388 320.084C234.294 320.084 235.073 319.894 235.726 319.513C236.378 319.133 236.886 318.589 237.248 317.882C237.61 317.157 237.792 316.297 237.792 315.3ZM254.629 328.565V298.175H265.23V303.992H265.557C266.1 301.836 266.97 300.268 268.166 299.29C269.38 298.293 270.794 297.795 272.406 297.795C272.878 297.795 273.349 297.831 273.82 297.903C274.291 297.976 274.744 298.085 275.179 298.229V307.526C274.635 307.326 273.965 307.191 273.168 307.118C272.388 307.027 271.718 306.982 271.156 306.982C270.087 306.982 269.126 307.227 268.275 307.716C267.423 308.187 266.753 308.858 266.263 309.728C265.792 310.579 265.557 311.585 265.557 312.745V328.565H254.629ZM308.963 298.175V306.112H288.685V298.175H308.963ZM292.545 328.565V297.305C292.545 294.805 292.989 292.73 293.877 291.081C294.765 289.432 296.024 288.199 297.655 287.384C299.286 286.568 301.207 286.161 303.418 286.161C304.813 286.161 306.163 286.269 307.468 286.487C308.791 286.704 309.76 286.885 310.377 287.03L308.8 294.859C308.401 294.75 307.939 294.66 307.414 294.587C306.906 294.515 306.444 294.478 306.027 294.478C305.013 294.478 304.324 294.696 303.962 295.131C303.599 295.566 303.418 296.146 303.418 296.87V328.565H292.545ZM313.569 328.565V298.175H324.496V328.565H313.569ZM319.005 295.076C317.519 295.076 316.251 294.587 315.2 293.609C314.149 292.63 313.623 291.452 313.623 290.075C313.623 288.679 314.149 287.502 315.2 286.541C316.251 285.563 317.519 285.073 319.005 285.073C320.491 285.073 321.76 285.563 322.811 286.541C323.862 287.502 324.387 288.67 324.387 290.048C324.387 291.443 323.862 292.63 322.811 293.609C321.76 294.587 320.491 295.076 319.005 295.076ZM330.406 328.565V298.175H341.008V303.992H341.334C341.877 301.836 342.747 300.268 343.943 299.29C345.157 298.293 346.571 297.795 348.184 297.795C348.655 297.795 349.126 297.831 349.597 297.903C350.068 297.976 350.521 298.085 350.956 298.229V307.526C350.413 307.326 349.742 307.191 348.945 307.118C348.165 307.027 347.495 306.982 346.933 306.982C345.864 306.982 344.904 307.227 344.052 307.716C343.2 308.187 342.53 308.858 342.04 309.728C341.569 310.579 341.334 311.585 341.334 312.745V328.565H330.406ZM382.635 308.069H372.632C372.56 307.145 372.116 306.42 371.3 305.895C370.503 305.351 369.57 305.079 368.501 305.079C367.558 305.079 366.761 305.252 366.109 305.596C365.456 305.922 365.13 306.402 365.13 307.036C365.13 307.49 365.32 307.915 365.701 308.314C366.1 308.713 366.87 309.012 368.011 309.211L374.209 310.298C377.308 310.842 379.618 311.784 381.14 313.125C382.681 314.466 383.451 316.26 383.451 318.507C383.451 320.682 382.816 322.567 381.548 324.161C380.28 325.738 378.54 326.961 376.329 327.831C374.136 328.682 371.636 329.108 368.827 329.108C364.188 329.108 360.554 328.166 357.927 326.281C355.317 324.379 353.858 321.878 353.55 318.779H364.369C364.532 319.74 365.021 320.483 365.837 321.008C366.652 321.515 367.667 321.769 368.881 321.769C369.896 321.769 370.73 321.597 371.382 321.253C372.034 320.908 372.36 320.428 372.36 319.812C372.36 318.743 371.201 318 368.881 317.583L363.499 316.605C360.418 316.043 358.108 315.019 356.568 313.533C355.027 312.029 354.257 310.081 354.257 307.689C354.257 305.569 354.819 303.775 355.942 302.307C357.084 300.839 358.697 299.724 360.781 298.963C362.883 298.184 365.384 297.795 368.283 297.795C372.669 297.795 376.121 298.71 378.64 300.54C381.177 302.352 382.508 304.862 382.635 308.069ZM406.105 298.175V306.112H386.099V298.175H406.105ZM389.959 290.945H400.886V318.779C400.886 319.413 401.05 319.894 401.376 320.22C401.702 320.528 402.227 320.682 402.952 320.682C403.278 320.682 403.659 320.646 404.094 320.573C404.547 320.501 404.873 320.428 405.072 320.356L406.649 328.075C405.399 328.42 404.266 328.664 403.251 328.809C402.236 328.954 401.24 329.027 400.261 329.027C396.854 329.027 394.281 328.248 392.542 326.689C390.82 325.131 389.959 322.838 389.959 319.812V290.945ZM437.008 333.621V283.007H440.27V333.621H437.008ZM438.693 329.054C435.178 329.054 432.106 328.538 429.479 327.505C426.869 326.454 424.84 324.841 423.39 322.666C421.94 320.492 421.206 317.71 421.188 314.321H431.626C431.699 315.554 432.007 316.596 432.55 317.447C433.112 318.299 433.891 318.942 434.888 319.377C435.903 319.812 437.117 320.03 438.53 320.03C439.708 320.03 440.696 319.885 441.493 319.595C442.291 319.305 442.889 318.906 443.287 318.399C443.704 317.873 443.912 317.275 443.912 316.605C443.912 315.988 443.713 315.454 443.314 315.001C442.934 314.53 442.3 314.104 441.412 313.723C440.524 313.343 439.328 312.998 437.824 312.69L433.746 311.821C430.176 311.059 427.359 309.764 425.293 307.933C423.245 306.085 422.221 303.575 422.221 300.404C422.221 297.831 422.919 295.584 424.314 293.663C425.709 291.724 427.63 290.22 430.077 289.151C432.541 288.063 435.377 287.52 438.585 287.52C441.865 287.52 444.692 288.072 447.066 289.178C449.458 290.265 451.297 291.805 452.584 293.799C453.888 295.774 454.55 298.085 454.568 300.73H444.021C443.931 299.407 443.441 298.384 442.553 297.659C441.684 296.916 440.361 296.544 438.585 296.544C437.461 296.544 436.537 296.68 435.812 296.952C435.087 297.206 434.553 297.568 434.208 298.039C433.864 298.51 433.692 299.045 433.692 299.643C433.692 300.277 433.873 300.839 434.236 301.328C434.616 301.799 435.205 302.216 436.002 302.579C436.818 302.923 437.86 303.231 439.128 303.503L442.445 304.21C444.674 304.681 446.585 305.306 448.18 306.085C449.793 306.864 451.107 307.779 452.121 308.83C453.154 309.863 453.906 311.032 454.378 312.337C454.867 313.642 455.111 315.064 455.111 316.605C455.111 319.268 454.45 321.534 453.127 323.4C451.822 325.248 449.947 326.653 447.5 327.613C445.054 328.574 442.118 329.054 438.693 329.054ZM479.614 288.063V328.565H468.579V298.175H468.361L459.5 303.503V294.152L469.448 288.063H479.614ZM485.199 288.063H498.899L508.304 311.005H508.738L518.198 288.063H531.843V328.565H521.079V305.134H520.807L511.783 328.239H505.259L496.289 305.025H495.963V328.565H485.199V288.063Z" fill="white"/>
</svg>
